<svg version="1.1" id="Layer_1" xmlns="http://www.w3.org/2000/svg" xmlns:xlink="http://www.w3.org/1999/xlink" x="0px" y="0px"
	 width="100%" viewBox="0 0 300 192" enable-background="new 0 0 300 192" xml:space="preserve">
<path fill="#79B5F5" opacity="1.000000" stroke="none" 
	d="
M32.000000,193.000000 
	C21.720146,193.000000 11.440290,193.000000 1.000000,193.000000 
	C1.000000,175.312729 1.000000,157.625015 1.407859,139.444153 
	C4.925415,138.797928 8.033572,138.587540 11.145135,138.504028 
	C17.212484,138.341187 23.284447,138.321045 29.348850,138.092163 
	C31.708055,138.003098 32.512554,136.860306 32.388279,134.153702 
	C31.987728,125.430046 31.993059,116.683060 32.035412,107.946007 
	C32.053185,104.279419 30.497393,102.922913 26.928862,102.970634 
	C18.287323,103.086227 9.643126,103.003059 1.000000,103.000000 
	C1.000000,69.024002 1.000000,35.048008 1.000000,1.036007 
	C100.905388,1.036007 200.810791,1.036007 300.858093,1.036007 
	C300.858093,64.999771 300.858093,128.999847 300.858093,193.000000 
	C292.592255,193.000000 284.264801,193.000000 275.336426,192.691711 
	C271.474823,189.125839 268.777252,184.428299 264.844086,182.890137 
	C254.493820,178.842468 245.059128,173.070007 234.930695,168.133148 
	C234.842392,163.224548 235.188736,158.702316 234.695053,154.273727 
	C233.948868,147.580154 234.527435,141.292374 236.588013,134.773727 
	C238.833786,127.669159 239.526413,120.118393 236.010941,112.671326 
	C237.637039,110.616577 238.989502,108.755043 240.586716,107.134750 
	C245.663635,101.984383 246.329575,99.239594 243.605621,92.604301 
	C242.732452,90.477333 241.533783,88.483986 240.636002,86.084076 
	C238.790558,82.600044 236.793152,79.461441 235.070679,76.035385 
	C236.228836,73.964127 237.764252,72.219315 237.873672,70.389236 
	C238.209839,64.767250 237.977127,59.112480 238.006424,53.470669 
	C238.085129,38.316654 238.093567,38.316696 222.422821,39.544769 
	C222.307419,37.584820 222.260223,36.086727 222.242493,34.588287 
	C222.071823,20.167105 224.032059,22.079195 209.816177,22.126545 
	C194.751648,22.176725 196.456268,19.403795 196.351105,36.210865 
	C196.330597,39.486649 197.606842,41.259624 201.010498,41.639626 
	C201.007797,51.185997 201.195862,60.280849 200.922409,69.361801 
	C200.792984,73.660011 202.127899,75.598549 206.533310,75.030548 
	C207.502838,74.905540 208.511520,75.084312 209.339066,75.445290 
	C207.904205,78.839798 206.632462,81.912209 205.261292,85.366440 
	C204.258286,88.515091 203.354721,91.281921 202.261826,94.628540 
	C197.522629,92.239464 193.407700,90.165085 189.349091,87.621300 
	C189.436203,70.191040 189.487152,53.230190 189.487915,36.269337 
	C189.488220,29.378693 188.903656,28.828447 182.138031,28.805004 
	C162.020615,28.735296 141.903152,28.672167 121.795303,28.190336 
	C121.443954,24.673687 123.727394,20.048096 117.873840,19.939840 
	C108.381721,19.764292 98.881172,19.781258 89.391731,20.018814 
	C88.029877,20.052906 85.592018,21.723051 85.549004,22.718054 
	C85.223312,30.251738 85.370987,37.805885 85.370987,45.353645 
	C85.744865,45.769157 86.118744,46.184669 86.492622,46.600178 
	C91.934822,37.465553 100.379219,38.723221 108.500809,38.861107 
	C109.999626,38.886551 111.498619,38.902737 113.096313,39.388168 
	C113.312874,52.630444 113.430656,65.407745 113.364716,78.484406 
	C109.617653,82.933746 106.054329,87.083733 102.516441,91.204102 
	C100.318428,89.666893 98.727470,88.554237 97.051659,87.134033 
	C92.611702,83.405785 88.256599,79.985085 83.706268,76.328201 
	C82.706810,74.152756 81.902573,72.213501 81.452202,70.304352 
	C88.546173,71.199539 89.511009,69.842766 87.041588,62.706032 
	C86.773651,60.430264 86.403229,58.564747 86.360947,56.409439 
	C88.610077,53.362789 88.516464,51.475113 84.587906,51.223717 
	C83.100182,51.128517 81.612076,50.894848 80.127510,50.920345 
	C74.660301,51.014236 72.203094,54.761253 74.123917,60.586647 
	C73.758873,65.151047 73.194664,69.406853 72.287720,73.755997 
	C62.292412,76.615494 60.009331,85.158867 56.656433,93.297485 
	C52.440079,100.376465 52.644611,106.588806 58.604984,112.405418 
	C61.182072,114.920349 63.092709,118.118202 65.201813,121.460419 
	C65.672112,128.166336 66.117439,134.433411 66.875984,140.662354 
	C67.253098,143.759186 68.970558,146.840240 68.758507,149.834747 
	C68.009476,160.412537 66.688751,170.949860 65.152115,181.464233 
	C52.205151,180.738739 40.509624,182.366150 32.000000,193.000000 
z"/>
<path fill="#F8989D" opacity="1.000000" stroke="none" 
	d="
M209.000000,193.000000 
	C173.645767,193.000000 138.291550,193.000000 102.385422,192.643402 
	C100.709442,191.519562 99.584480,190.753632 98.461494,189.984787 
	C97.032578,189.006470 95.605278,188.025787 94.400192,186.623367 
	C94.743080,181.451797 94.863068,176.702972 95.413673,171.960449 
	C106.389069,172.612305 115.745544,175.785370 122.392502,184.554138 
	C133.690506,178.494873 134.782196,178.502686 144.731857,184.706085 
	C160.589584,173.035385 176.521210,174.365250 190.934631,184.251465 
	C196.592773,179.431534 201.571869,175.190079 206.731476,171.227539 
	C208.915848,175.687225 210.919724,179.867966 212.965958,184.449066 
	C214.476364,188.945328 210.398300,190.313736 209.000000,193.000000 
z"/>
<path fill="#6FACF3" opacity="1.000000" stroke="none" 
	d="
M1.000000,103.468658 
	C9.643126,103.003059 18.287323,103.086227 26.928862,102.970634 
	C30.497393,102.922913 32.053185,104.279419 32.035412,107.946007 
	C31.993059,116.683060 31.987728,125.430046 32.388279,134.153702 
	C32.512554,136.860306 31.708055,138.003098 29.348850,138.092163 
	C23.284447,138.321045 17.212484,138.341187 11.145135,138.504028 
	C8.033572,138.587540 4.925415,138.797928 1.407859,138.975494 
	C1.000000,127.312439 1.000000,115.624878 1.000000,103.468658 
z"/>
<path fill="#F8989D" opacity="1.000000" stroke="none" 
	d="
M234.989258,168.561432 
	C245.059128,173.070007 254.493820,178.842468 264.844086,182.890137 
	C268.777252,184.428299 271.474823,189.125839 274.867798,192.691711 
	C260.979095,193.000000 246.958206,193.000000 232.441864,192.624542 
	C231.920059,189.823166 231.893723,187.397247 232.047760,184.626648 
	C233.148483,179.041779 234.068878,173.801605 234.989258,168.561432 
z"/>
<path fill="#F6989D" opacity="1.000000" stroke="none" 
	d="
M32.468658,193.000000 
	C40.509624,182.366150 52.205151,180.738739 65.248581,181.836136 
	C65.963821,183.827240 66.149925,185.408173 66.356888,187.419220 
	C66.251839,189.566238 66.125916,191.283112 66.000000,193.000000 
	C54.979107,193.000000 43.958210,193.000000 32.468658,193.000000 
z"/>
<path fill="#F1949B" opacity="1.000000" stroke="none" 
	d="
M222.000000,193.000000 
	C219.299377,193.000000 216.598740,193.000000 213.643951,192.692780 
	C217.766937,190.749619 219.472763,187.592896 218.831482,182.624146 
	C218.360794,177.418488 217.772690,172.621811 217.547333,167.771271 
	C219.625946,167.480835 221.341843,167.244278 223.230103,167.356949 
	C224.609406,173.473709 225.816345,179.241257 227.039886,185.391968 
	C225.371002,188.183441 223.685501,190.591721 222.000000,193.000000 
z"/>
<path fill="#F4959B" opacity="1.000000" stroke="none" 
	d="
M87.000000,193.000000 
	C84.299370,193.000000 81.598747,193.000000 78.479752,192.628448 
	C76.622231,190.499908 75.183075,188.742935 73.915291,186.619598 
	C74.852142,182.831116 75.617622,179.409012 76.711243,175.902527 
	C79.227974,174.994293 81.416550,174.170410 83.710983,173.795074 
	C84.628456,178.501144 85.440071,182.758652 86.266434,187.392181 
	C86.520798,189.512131 86.760399,191.256073 87.000000,193.000000 
z"/>
<path fill="#372F58" opacity="1.000000" stroke="none" 
	d="
M87.466118,193.000000 
	C86.760399,191.256073 86.520798,189.512131 86.672020,187.386505 
	C89.434326,187.018570 91.805809,187.032349 94.177277,187.046112 
	C95.605278,188.025787 97.032578,189.006470 98.461494,189.984787 
	C99.584480,190.753632 100.709442,191.519562 101.916763,192.643402 
	C97.310745,193.000000 92.621490,193.000000 87.466118,193.000000 
z"/>
<path fill="#453C61" opacity="1.000000" stroke="none" 
	d="
M73.743919,186.985947 
	C75.183075,188.742935 76.622231,190.499908 78.030685,192.628448 
	C74.307091,193.000000 70.614182,193.000000 66.460632,193.000000 
	C66.125916,191.283112 66.251839,189.566238 66.766220,187.417664 
	C69.351097,186.985977 71.547508,186.985962 73.743919,186.985947 
z"/>
<path fill="#4A3E63" opacity="1.000000" stroke="none" 
	d="
M222.454102,193.000000 
	C223.685501,190.591721 225.371002,188.183441 227.443268,185.389008 
	C229.175827,184.992371 230.521622,184.981842 231.867401,184.971329 
	C231.893723,187.397247 231.920059,189.823166 231.973206,192.624542 
	C228.969406,193.000000 225.938812,193.000000 222.454102,193.000000 
z"/>
<path fill="#42365D" opacity="1.000000" stroke="none" 
	d="
M218.714096,183.033142 
	C219.472763,187.592896 217.766937,190.749619 213.194885,192.692780 
	C211.933334,193.000000 210.866653,193.000000 209.399994,193.000000 
	C210.398300,190.313736 214.476364,188.945328 213.337021,184.422058 
	C215.348526,183.674164 217.031311,183.353653 218.714096,183.033142 
z"/>
<path fill="#2D2E7E" opacity="1.000000" stroke="none" 
	d="
M218.831482,182.624146 
	C217.031311,183.353653 215.348526,183.674164 213.294678,184.021698 
	C210.919724,179.867966 208.915848,175.687225 206.645752,170.838303 
	C204.328018,164.197708 202.231750,158.240173 200.238266,152.248459 
	C198.443848,146.855011 198.438263,141.516144 200.712341,136.181030 
	C203.187973,130.373001 205.499115,124.493309 207.786636,118.607811 
	C208.303741,117.277367 208.792984,115.759758 208.664963,114.387062 
	C208.234421,109.770248 207.519562,105.179947 207.000031,100.191246 
	C207.560959,96.559998 207.702515,93.221207 208.600830,90.100235 
	C209.551193,86.798454 208.264740,85.533730 205.360718,84.984627 
	C206.632462,81.912209 207.904205,78.839798 209.612625,75.299591 
	C211.173584,73.957283 212.297867,73.082764 214.064606,71.708496 
	C211.932343,71.356117 210.423676,71.356003 209.153183,70.805832 
	C208.357254,70.461166 207.278763,69.142654 207.423004,68.511612 
	C208.536987,63.638256 209.886841,58.816971 211.264847,54.008568 
	C211.408569,53.507122 212.161255,53.101067 212.714767,52.808460 
	C218.074585,49.975052 225.704315,51.888126 228.517380,57.038513 
	C230.471115,60.615574 231.936127,64.459572 233.532547,67.991951 
	C231.132019,69.023941 229.228607,69.842216 226.963272,70.816086 
	C229.741241,72.769188 232.268478,74.546013 234.795731,76.322845 
	C236.793152,79.461441 238.790558,82.600044 240.330627,86.142120 
	C237.509735,87.393990 235.146194,88.242393 232.498947,89.357796 
	C233.146591,94.514679 234.077957,99.404579 234.901443,104.608597 
	C231.276306,109.801628 227.759033,114.680527 224.594101,119.070694 
	C225.893082,118.993484 228.054886,118.864983 228.977356,118.810150 
	C231.775314,116.434311 233.812317,114.704636 235.849319,112.974960 
	C239.526413,120.118393 238.833786,127.669159 236.588013,134.773727 
	C234.527435,141.292374 233.948868,147.580154 234.695053,154.273727 
	C235.188736,158.702316 234.842392,163.224548 234.930695,168.133148 
	C234.068878,173.801605 233.148483,179.041779 232.047760,184.626648 
	C230.521622,184.981842 229.175827,184.992371 227.426666,185.005829 
	C225.816345,179.241257 224.609406,173.473709 223.258820,166.914703 
	C222.028961,155.958084 220.942764,145.792953 219.752762,134.656326 
	C217.821991,137.072067 216.289795,138.583603 215.265488,140.384079 
	C214.228790,142.206360 212.828537,144.439407 213.093185,146.275513 
	C214.135193,153.505112 215.769882,160.649261 217.184601,167.825134 
	C217.772690,172.621811 218.360794,177.418488 218.831482,182.624146 
M221.591385,82.363449 
	C221.415543,80.583771 221.239700,78.804092 221.102127,76.496231 
	C221.371902,76.275764 221.641678,76.055298 222.402954,75.552315 
	C222.232956,74.683632 222.062943,73.814941 221.542648,72.987114 
	C221.542648,72.987114 221.197769,73.060806 221.093872,72.279388 
	C221.638702,67.617004 222.183548,62.954624 222.563766,59.700993 
	C219.483459,58.437866 217.115753,57.466949 214.754929,56.498852 
	C211.189575,63.383389 212.027649,65.656738 218.993118,68.247055 
	C218.369354,69.826706 217.744110,71.410118 216.775452,73.699547 
	C212.806122,85.385864 212.355957,97.352448 213.370056,110.085396 
	C216.591537,108.689270 219.121948,107.592636 221.805695,106.429558 
	C218.912567,98.551231 217.567841,90.882996 220.535049,82.960892 
	C220.746109,82.950920 220.957169,82.940956 221.591385,82.363449 
z"/>
<path fill="#2D2E7E" opacity="1.000000" stroke="none" 
	d="
M73.915291,186.619598 
	C71.547508,186.985962 69.351097,186.985977 66.745354,186.987549 
	C66.149925,185.408173 65.963821,183.827240 65.681259,181.874420 
	C66.688751,170.949860 68.009476,160.412537 68.758507,149.834747 
	C68.970558,146.840240 67.253098,143.759186 66.875984,140.662354 
	C66.117439,134.433411 65.672112,128.166336 65.465637,121.641113 
	C67.403183,123.241676 68.972626,125.116119 70.593330,127.051781 
	C72.673416,126.101662 74.637817,125.204384 76.075569,124.547661 
	C73.781441,121.404778 71.438843,118.195488 69.530602,114.958336 
	C76.907043,115.705215 83.849121,116.479965 90.789734,117.676155 
	C92.186516,136.049789 93.584778,154.001984 94.983047,171.954163 
	C94.863068,176.702972 94.743080,181.451797 94.400192,186.623352 
	C91.805809,187.032349 89.434326,187.018570 86.657272,187.010483 
	C85.440071,182.758652 84.628456,178.501144 83.730270,173.449600 
	C82.922218,165.701477 82.200737,158.747375 81.479256,151.793274 
	C81.133743,151.773666 80.788231,151.754059 80.442719,151.734451 
	C79.089516,159.818604 77.736305,167.902740 76.383102,175.986893 
	C75.617622,179.409012 74.852142,182.831116 73.915291,186.619598 
z"/>
<path fill="#FDFDFE" opacity="1.000000" stroke="none" 
	d="
M90.791206,117.254707 
	C83.849121,116.479965 76.907043,115.705215 69.337563,114.689011 
	C67.742729,112.963875 66.775299,111.480202 65.862686,109.540634 
	C65.667580,105.227516 65.417648,101.370293 64.962585,97.204674 
	C62.136108,95.613976 59.514767,94.331665 56.893425,93.049355 
	C60.009331,85.158867 62.292412,76.615494 72.606857,73.973564 
	C76.605965,75.812378 79.413437,79.810684 83.901505,76.564384 
	C88.256599,79.985085 92.611702,83.405785 96.818222,87.428757 
	C95.075752,90.189819 93.481865,92.348587 91.493729,94.455948 
	C90.722519,95.828232 89.997871,97.259491 90.028641,98.674316 
	C90.163399,104.870377 90.516998,111.061676 90.791206,117.254707 
z"/>
<path fill="#2E3080" opacity="1.000000" stroke="none" 
	d="
M113.548447,78.185051 
	C113.430656,65.407745 113.312874,52.630444 113.208321,38.979416 
	C113.524452,29.119560 113.524452,29.119560 121.785713,28.606466 
	C141.903152,28.672167 162.020615,28.735296 182.138031,28.805004 
	C188.903656,28.828447 189.488220,29.378693 189.487915,36.269337 
	C189.487152,53.230190 189.436203,70.191040 189.086395,87.578400 
	C188.153610,87.651474 187.539871,87.298042 186.960709,86.480927 
	C186.932816,71.761856 186.870361,57.506466 186.880829,42.795616 
	C186.953766,40.728935 186.953766,39.117714 186.953766,37.401436 
	C163.054184,37.401436 139.670456,37.401436 116.252060,37.401436 
	C116.252060,39.603619 116.252060,41.420197 116.178223,43.685246 
	C116.137184,54.451115 116.169991,64.768509 116.060852,75.348473 
	C115.128761,76.469040 114.338600,77.327042 113.548447,78.185051 
z"/>
<path fill="#6FABF2" opacity="1.000000" stroke="none" 
	d="
M235.070679,76.035385 
	C232.268478,74.546013 229.741241,72.769188 226.963272,70.816086 
	C229.228607,69.842216 231.132019,69.023941 233.532547,67.991951 
	C231.936127,64.459572 230.471115,60.615574 228.517380,57.038513 
	C225.704315,51.888126 218.074585,49.975052 212.714767,52.808460 
	C212.161255,53.101067 211.408569,53.507122 211.264847,54.008568 
	C209.886841,58.816971 208.536987,63.638256 207.423004,68.511612 
	C207.278763,69.142654 208.357254,70.461166 209.153183,70.805832 
	C210.423676,71.356003 211.932343,71.356117 214.064606,71.708496 
	C212.297867,73.082764 211.173584,73.957283 209.775742,74.977493 
	C208.511520,75.084312 207.502838,74.905540 206.533310,75.030548 
	C202.127899,75.598549 200.792984,73.660011 200.922409,69.361801 
	C201.195862,60.280849 201.007797,51.185997 201.465515,41.580299 
	C209.529007,39.859089 216.115128,41.910351 221.837769,48.903599 
	C222.141174,44.855949 222.322922,42.431206 222.504684,40.006462 
	C238.093567,38.316696 238.085129,38.316654 238.006424,53.470669 
	C237.977127,59.112480 238.209839,64.767250 237.873672,70.389236 
	C237.764252,72.219315 236.228836,73.964127 235.070679,76.035385 
z"/>
<path fill="#FAFCFE" opacity="1.000000" stroke="none" 
	d="
M121.795303,28.190336 
	C113.524452,29.119560 113.524452,29.119560 113.109543,38.514442 
	C111.498619,38.902737 109.999626,38.886551 108.500809,38.861107 
	C100.379219,38.723221 91.934822,37.465553 86.492622,46.600178 
	C86.118744,46.184669 85.744865,45.769157 85.370987,45.353645 
	C85.370987,37.805885 85.223312,30.251738 85.549004,22.718054 
	C85.592018,21.723051 88.029877,20.052906 89.391731,20.018814 
	C98.881172,19.781258 108.381721,19.764292 117.873840,19.939840 
	C123.727394,20.048096 121.443954,24.673687 121.795303,28.190336 
M99.687378,27.989916 
	C102.142883,27.873590 104.598396,27.757265 107.053902,27.640940 
	C107.021706,27.253187 106.989502,26.865433 106.957306,26.477680 
	C102.950249,26.477680 98.943192,26.477680 94.936134,26.477680 
	C94.901772,26.829943 94.867409,27.182205 94.833046,27.534468 
	C96.160263,27.686085 97.487480,27.837702 99.687378,27.989916 
z"/>
<path fill="#F89A9E" opacity="1.000000" stroke="none" 
	d="
M222.422821,39.544769 
	C222.322922,42.431206 222.141174,44.855949 221.837769,48.903599 
	C216.115128,41.910351 209.529007,39.859089 201.466965,41.123081 
	C197.606842,41.259624 196.330597,39.486649 196.351105,36.210865 
	C196.456268,19.403795 194.751648,22.176725 209.816177,22.126545 
	C224.032059,22.079195 222.071823,20.167105 222.242493,34.588287 
	C222.260223,36.086727 222.307419,37.584820 222.422821,39.544769 
M206.560516,30.266510 
	C207.436020,32.228039 208.311523,34.189564 209.401840,36.632378 
	C210.478378,34.680374 211.750977,33.325935 211.897659,31.858936 
	C212.070251,30.132515 211.266663,28.308495 210.886368,26.526791 
	C209.397827,27.538857 207.909286,28.550922 206.560516,30.266510 
z"/>
<path fill="#F4989E" opacity="1.000000" stroke="none" 
	d="
M56.656433,93.297485 
	C59.514767,94.331665 62.136108,95.613976 64.785263,97.473282 
	C61.906826,102.301987 61.301052,106.362122 65.807861,109.996529 
	C66.775299,111.480202 67.742729,112.963875 68.903206,114.716873 
	C71.438843,118.195488 73.781441,121.404778 76.075569,124.547661 
	C74.637817,125.204384 72.673416,126.101662 70.593330,127.051781 
	C68.972626,125.116119 67.403183,123.241676 65.569908,121.186539 
	C63.092709,118.118202 61.182072,114.920349 58.604984,112.405418 
	C52.644611,106.588806 52.440079,100.376465 56.656433,93.297485 
z"/>
<path fill="#F59AA0" opacity="1.000000" stroke="none" 
	d="
M113.364716,78.484406 
	C114.338600,77.327042 115.128761,76.469040 116.349876,75.195526 
	C118.368538,73.451530 119.956245,72.123047 121.639961,70.714233 
	C121.862938,71.346535 121.924431,71.885651 122.204933,72.261177 
	C125.955048,77.281738 125.796867,77.387581 120.222061,80.138412 
	C118.480804,80.997620 117.365616,83.125633 115.651939,84.788162 
	C114.568398,85.960228 113.796745,87.016960 112.754288,88.262634 
	C110.220131,91.266083 107.997841,94.114868 105.682632,96.886017 
	C103.043274,100.045143 99.881111,100.406677 96.503906,98.182755 
	C94.867928,97.105438 93.420670,95.741524 91.887970,94.507355 
	C93.481865,92.348587 95.075752,90.189819 96.903076,87.736313 
	C98.727470,88.554237 100.318428,89.666893 102.516441,91.204102 
	C106.054329,87.083733 109.617653,82.933746 113.364716,78.484406 
z"/>
<path fill="#F1959D" opacity="1.000000" stroke="none" 
	d="
M236.010941,112.671326 
	C233.812317,114.704636 231.775314,116.434311 228.977356,118.810150 
	C228.054886,118.864983 225.893082,118.993484 224.594101,119.070694 
	C227.759033,114.680527 231.276306,109.801628 235.189087,104.367691 
	C238.902969,100.855873 238.691452,97.837547 236.009338,94.513084 
	C234.702011,92.892639 233.844040,90.909676 232.782654,89.090805 
	C235.146194,88.242393 237.509735,87.393990 240.178650,86.487549 
	C241.533783,88.483986 242.732452,90.477333 243.605621,92.604301 
	C246.329575,99.239594 245.663635,101.984383 240.586716,107.134750 
	C238.989502,108.755043 237.637039,110.616577 236.010941,112.671326 
z"/>
<path fill="#F298A0" opacity="1.000000" stroke="none" 
	d="
M186.926147,86.944611 
	C187.539871,87.298042 188.153610,87.651474 189.030045,88.047806 
	C193.407700,90.165085 197.522629,92.239464 202.261826,94.628540 
	C203.354721,91.281921 204.258286,88.515091 205.261292,85.366440 
	C208.264740,85.533730 209.551193,86.798454 208.600830,90.100235 
	C207.702515,93.221207 207.560959,96.559998 206.605591,100.309822 
	C203.973770,100.294289 201.624802,100.154694 199.715134,99.166306 
	C196.217545,97.356071 192.979355,95.044632 189.471161,92.741379 
	C188.570847,92.100136 187.832382,91.659691 186.833588,90.926102 
	C184.554428,90.130569 182.527725,89.657509 180.519043,89.117401 
	C178.580444,88.596130 176.660461,88.005676 174.732285,87.445625 
	C174.895126,86.837570 175.057953,86.229523 175.220779,85.621468 
	C179.122574,86.062515 183.024353,86.503563 186.926147,86.944611 
z"/>
<path fill="#333382" opacity="1.000000" stroke="none" 
	d="
M73.924767,60.278049 
	C72.203094,54.761253 74.660301,51.014236 80.127510,50.920345 
	C81.612076,50.894848 83.100182,51.128517 84.587906,51.223717 
	C88.516464,51.475113 88.610077,53.362789 86.021942,56.340466 
	C83.129166,56.153671 80.903542,55.746059 78.643150,55.332081 
	C78.208626,62.406498 80.389969,64.354721 86.939102,63.116283 
	C89.511009,69.842766 88.546173,71.199539 81.146507,70.082687 
	C79.591255,67.797089 78.819336,65.695885 77.760513,63.750851 
	C76.919983,62.206783 77.607460,58.743996 73.924767,60.278049 
z"/>
<path fill="#F5999F" opacity="1.000000" stroke="none" 
	d="
M74.123917,60.586647 
	C77.607460,58.743996 76.919983,62.206783 77.760513,63.750851 
	C78.819336,65.695885 79.591255,67.797089 80.792648,70.052582 
	C81.902573,72.213501 82.706810,74.152756 83.706268,76.328201 
	C79.413437,79.810684 76.605965,75.812378 72.949585,73.880226 
	C73.194664,69.406853 73.758873,65.151047 74.123917,60.586647 
z"/>
<path fill="#EA909A" opacity="1.000000" stroke="none" 
	d="
M87.041588,62.706032 
	C80.389969,64.354721 78.208626,62.406498 78.643150,55.332081 
	C80.903542,55.746059 83.129166,56.153671 85.693802,56.630253 
	C86.403229,58.564747 86.773651,60.430264 87.041588,62.706032 
z"/>
<path fill="#79B3F3" opacity="1.000000" stroke="none" 
	d="
M189.633011,92.942177 
	C192.979355,95.044632 196.217545,97.356071 199.715134,99.166306 
	C201.624802,100.154694 203.973770,100.294289 206.519073,100.698082 
	C207.519562,105.179947 208.234421,109.770248 208.664963,114.387062 
	C208.792984,115.759758 208.303741,117.277367 207.786636,118.607811 
	C205.499115,124.493309 203.187973,130.373001 200.712341,136.181030 
	C198.438263,141.516144 198.443848,146.855011 200.238266,152.248459 
	C202.231750,158.240173 204.328018,164.197708 206.465240,170.559357 
	C201.571869,175.190079 196.592773,179.431534 190.934631,184.251465 
	C176.521210,174.365250 160.589584,173.035385 144.731857,184.706085 
	C134.782196,178.502686 133.690506,178.494873 122.392502,184.554138 
	C115.745544,175.785370 106.389069,172.612305 95.413666,171.960449 
	C93.584778,154.001984 92.186516,136.049789 90.789734,117.676155 
	C90.516998,111.061676 90.163399,104.870377 90.028641,98.674316 
	C89.997871,97.259491 90.722519,95.828232 91.493729,94.455948 
	C93.420670,95.741524 94.867928,97.105438 96.503906,98.182755 
	C99.881111,100.406677 103.043274,100.045143 105.682632,96.886017 
	C107.997841,94.114868 110.220131,91.266083 112.835861,88.719528 
	C113.212616,113.950027 113.227104,138.912598 113.267876,163.875107 
	C113.278816,170.571686 113.989052,171.260406 120.783249,171.264999 
	C141.252991,171.278824 161.722763,171.280273 182.192490,171.264038 
	C188.884857,171.258743 189.473145,170.640747 189.512878,163.723511 
	C189.589325,150.413834 189.641953,137.104004 190.151917,123.808258 
	C194.530396,124.407982 196.502136,123.076149 195.999329,118.758446 
	C195.715332,116.319664 195.667969,113.781494 196.006668,111.356911 
	C196.720779,106.245102 194.661530,104.332870 189.632172,104.747986 
	C189.584122,100.499771 189.608566,96.720970 189.633011,92.942177 
z"/>
<path fill="#77B0F1" opacity="1.000000" stroke="none" 
	d="
M217.547333,167.771271 
	C215.769882,160.649261 214.135193,153.505112 213.093185,146.275513 
	C212.828537,144.439407 214.228790,142.206360 215.265488,140.384079 
	C216.289795,138.583603 217.821991,137.072067 219.752762,134.656326 
	C220.942764,145.792953 222.028961,155.958084 223.086456,166.565475 
	C221.341843,167.244278 219.625946,167.480835 217.547333,167.771271 
z"/>
<path fill="#72A7E8" opacity="1.000000" stroke="none" 
	d="
M76.711243,175.902527 
	C77.736305,167.902740 79.089516,159.818604 80.442719,151.734451 
	C80.788231,151.754059 81.133743,151.773666 81.479256,151.793274 
	C82.200737,158.747375 82.922218,165.701477 83.624413,173.001053 
	C81.416550,174.170410 79.227974,174.994293 76.711243,175.902527 
z"/>
<path fill="#7AB2F1" opacity="1.000000" stroke="none" 
	d="
M221.197769,73.060806 
	C221.197769,73.060806 221.542648,72.987114 221.752380,73.327240 
	C221.945221,74.389854 221.928329,75.112343 221.911453,75.834824 
	C221.641678,76.055298 221.371902,76.275764 221.015442,77.166634 
	C220.948166,79.213425 220.967575,80.589821 220.737900,82.044373 
	C220.292892,82.402321 220.096985,82.682106 219.901062,82.961884 
	C217.567841,90.882996 218.912567,98.551231 221.805695,106.429558 
	C219.121948,107.592636 216.591537,108.689270 213.370056,110.085396 
	C212.355957,97.352448 212.806122,85.385864 217.246704,73.485054 
	C218.877884,73.200645 220.037827,73.130722 221.197769,73.060806 
z"/>
<path fill="#F5959B" opacity="1.000000" stroke="none" 
	d="
M221.145813,72.670090 
	C220.037827,73.130722 218.877884,73.200645 217.418396,73.132042 
	C217.744110,71.410118 218.369354,69.826706 218.993118,68.247055 
	C212.027649,65.656738 211.189575,63.383389 214.754929,56.498852 
	C217.115753,57.466949 219.483459,58.437866 222.563766,59.700993 
	C222.183548,62.954624 221.638702,67.617004 221.145813,72.670090 
z"/>
<path fill="#7BAEEC" opacity="1.000000" stroke="none" 
	d="
M232.498947,89.357796 
	C233.844040,90.909676 234.702011,92.892639 236.009338,94.513084 
	C238.691452,97.837547 238.902969,100.855873 235.296967,104.053574 
	C234.077957,99.404579 233.146591,94.514679 232.498947,89.357796 
z"/>
<path fill="#6D6EA5" opacity="1.000000" stroke="none" 
	d="
M220.986984,81.966209 
	C220.967575,80.589821 220.948166,79.213425 220.996307,77.430725 
	C221.239700,78.804092 221.415543,80.583771 221.330856,82.406860 
	C221.070328,82.450264 220.986984,81.966209 220.986984,81.966209 
z"/>
<path fill="#6D6EA5" opacity="1.000000" stroke="none" 
	d="
M222.157196,75.693573 
	C221.928329,75.112343 221.945221,74.389854 221.927521,73.306816 
	C222.062943,73.814941 222.232956,74.683632 222.157196,75.693573 
z"/>
<path fill="#2E3181" opacity="1.000000" stroke="none" 
	d="
M220.737900,82.044373 
	C220.986984,81.966209 221.070328,82.450264 221.119278,82.690628 
	C220.957169,82.940956 220.746109,82.950920 220.218063,82.961395 
	C220.096985,82.682106 220.292892,82.402321 220.737900,82.044373 
z"/>
<path fill="#92BCF0" opacity="1.000000" stroke="none" 
	d="
M65.862686,109.540634 
	C61.301052,106.362122 61.906826,102.301987 64.990402,97.781677 
	C65.417648,101.370293 65.667580,105.227516 65.862686,109.540634 
z"/>
<path fill="#FAFBFD" opacity="1.000000" stroke="none" 
	d="
M186.960709,86.480927 
	C183.024353,86.503563 179.122574,86.062515 175.220779,85.621468 
	C175.057953,86.229523 174.895126,86.837570 174.732285,87.445625 
	C176.660461,88.005676 178.580444,88.596130 180.519043,89.117401 
	C182.527725,89.657509 184.554428,90.130569 186.802155,91.378006 
	C187.031052,114.708664 187.031052,137.294281 187.031052,159.796463 
	C163.029694,159.796463 139.768082,159.796463 115.963844,159.796463 
	C115.963844,134.575623 115.963844,109.624237 115.963837,84.672836 
	C117.365616,83.125633 118.480804,80.997620 120.222061,80.138412 
	C125.796867,77.387581 125.955048,77.281738 122.204933,72.261177 
	C121.924431,71.885651 121.862938,71.346535 121.639961,70.714233 
	C119.956245,72.123047 118.368538,73.451530 116.491806,74.932961 
	C116.169991,64.768509 116.137184,54.451115 116.630806,43.710018 
	C140.374115,43.274570 163.591019,43.262825 186.807907,43.251083 
	C186.870361,57.506466 186.932816,71.761856 186.960709,86.480927 
M163.499252,98.763649 
	C150.852219,98.764877 138.204361,98.844055 125.558693,98.713661 
	C122.310570,98.680176 121.181389,99.812363 121.203926,103.051117 
	C121.313866,118.859131 121.312325,134.668701 121.207115,150.476776 
	C121.185310,153.752258 122.446495,154.825684 125.629028,154.808411 
	C142.934967,154.714401 160.241943,154.712982 177.547867,154.807388 
	C180.790421,154.825073 181.910248,153.622772 181.888290,150.404236 
	C181.780411,134.596191 181.770996,118.786484 181.894943,102.978676 
	C181.921066,99.645508 180.642471,98.591606 177.476486,98.722435 
	C173.157318,98.900917 168.825134,98.764488 163.499252,98.763649 
M173.321671,67.136108 
	C162.327469,67.137665 151.332840,67.196022 140.339310,67.111755 
	C136.162201,67.079735 135.856308,69.682297 136.059372,72.776382 
	C136.252594,75.720787 134.883392,79.666832 140.038574,79.683609 
	C152.698334,79.724823 165.360519,79.797585 178.014847,79.530914 
	C179.302109,79.503784 181.563400,77.320465 181.641205,76.033073 
	C182.196411,66.846489 181.639435,66.853264 173.321671,67.136108 
M148.497955,61.946251 
	C153.316544,61.945889 158.144760,61.755188 162.951035,61.998264 
	C167.834747,62.245266 167.714340,59.150566 167.704132,55.800655 
	C167.694107,52.517391 168.021072,49.437111 163.073318,49.513294 
	C150.946655,49.700008 138.812683,49.717583 126.686867,49.505211 
	C121.790802,49.419464 121.930931,52.315739 121.994064,55.684177 
	C122.054626,58.915497 121.542229,62.161095 126.564781,61.999477 
	C133.536163,61.775150 140.520233,61.945099 148.497955,61.946251 
M147.841644,89.673004 
	C149.000061,91.067894 150.045944,93.437195 151.348083,93.587585 
	C152.689026,93.742462 154.279724,91.734802 155.414291,90.921875 
	C153.990250,88.218399 152.944534,86.233177 151.579926,83.642517 
	C150.276962,85.916924 149.318573,87.589867 147.841644,89.673004 
z"/>
<path fill="#7DB7F5" opacity="1.000000" stroke="none" 
	d="
M186.880829,42.795620 
	C163.591019,43.262825 140.374115,43.274570 116.704643,43.261543 
	C116.252060,41.420197 116.252060,39.603619 116.252060,37.401436 
	C139.670456,37.401436 163.054184,37.401436 186.953766,37.401436 
	C186.953766,39.117714 186.953766,40.728935 186.880829,42.795620 
z"/>
<path fill="#B7D8FA" opacity="1.000000" stroke="none" 
	d="
M99.251038,27.989616 
	C97.487480,27.837702 96.160263,27.686085 94.833046,27.534468 
	C94.867409,27.182205 94.901772,26.829943 94.936134,26.477680 
	C98.943192,26.477680 102.950249,26.477680 106.957306,26.477680 
	C106.989502,26.865433 107.021706,27.253187 107.053902,27.640940 
	C104.598396,27.757265 102.142883,27.873590 99.251038,27.989616 
z"/>
<path fill="#FEF6F6" opacity="1.000000" stroke="none" 
	d="
M206.490631,29.914749 
	C207.909286,28.550922 209.397827,27.538857 210.886353,26.526793 
	C211.266663,28.308495 212.070251,30.132515 211.897659,31.858936 
	C211.750977,33.325935 210.478378,34.680374 209.401840,36.632378 
	C208.311523,34.189564 207.436020,32.228039 206.490631,29.914749 
z"/>
<path fill="#313382" opacity="1.000000" stroke="none" 
	d="
M115.651947,84.788170 
	C115.963844,109.624237 115.963844,134.575623 115.963844,159.796463 
	C139.768082,159.796463 163.029694,159.796463 187.031052,159.796463 
	C187.031052,137.294281 187.031052,114.708664 187.062485,91.671150 
	C187.832382,91.659691 188.570847,92.100136 189.471161,92.741379 
	C189.608566,96.720970 189.584122,100.499771 189.507751,105.111511 
	C189.538712,111.894386 189.621597,117.844315 189.704468,123.794235 
	C189.641953,137.104004 189.589325,150.413834 189.512878,163.723511 
	C189.473145,170.640747 188.884857,171.258743 182.192490,171.264038 
	C161.722763,171.280273 141.252991,171.278824 120.783249,171.264999 
	C113.989052,171.260406 113.278816,170.571686 113.267876,163.875107 
	C113.227104,138.912598 113.212616,113.950027 113.106682,88.530579 
	C113.796745,87.016960 114.568398,85.960228 115.651947,84.788170 
M154.270065,165.191437 
	C150.758133,165.191437 147.246185,165.191437 143.734253,165.191437 
	C143.736572,165.741409 143.738907,166.291397 143.741226,166.841370 
	C148.855255,166.841370 153.969284,166.841370 159.083313,166.841370 
	C159.110840,166.443848 159.138351,166.046341 159.165878,165.648819 
	C157.835922,165.496506 156.505981,165.344193 154.270065,165.191437 
z"/>
<path fill="#E7949F" opacity="1.000000" stroke="none" 
	d="
M190.151917,123.808258 
	C189.621597,117.844315 189.538712,111.894386 189.580261,105.580933 
	C194.661530,104.332870 196.720779,106.245102 196.006668,111.356911 
	C195.667969,113.781494 195.715332,116.319664 195.999329,118.758446 
	C196.502136,123.076149 194.530396,124.407982 190.151917,123.808258 
z"/>
<path fill="#7FB9F6" opacity="1.000000" stroke="none" 
	d="
M163.998886,98.763359 
	C168.825134,98.764488 173.157318,98.900917 177.476486,98.722435 
	C180.642471,98.591606 181.921066,99.645508 181.894943,102.978676 
	C181.770996,118.786484 181.780411,134.596191 181.888290,150.404236 
	C181.910248,153.622772 180.790421,154.825073 177.547867,154.807388 
	C160.241943,154.712982 142.934967,154.714401 125.629028,154.808411 
	C122.446495,154.825684 121.185310,153.752258 121.207115,150.476776 
	C121.312325,134.668701 121.313866,118.859131 121.203926,103.051117 
	C121.181389,99.812363 122.310570,98.680176 125.558693,98.713661 
	C138.204361,98.844055 150.852219,98.764877 163.998886,98.763359 
M175.171051,140.446838 
	C174.602676,139.682343 174.056824,138.276443 173.462341,138.255569 
	C168.998276,138.098770 164.522995,138.165161 160.055969,138.308777 
	C159.495941,138.326767 158.963516,139.203033 158.418304,139.681625 
	C158.486679,140.097992 158.555054,140.514359 158.623444,140.930725 
	C163.922104,140.930725 169.220779,140.930725 175.171051,140.446838 
M164.670380,106.764847 
	C162.598724,106.980751 160.527069,107.196655 157.245865,107.538620 
	C162.780014,111.009254 173.202454,110.567368 175.862167,106.764191 
	C172.029587,106.764191 168.817703,106.764191 164.670380,106.764847 
M139.284531,138.921875 
	C135.538300,138.921875 131.792053,138.921875 128.045822,138.921875 
	C131.607010,142.839218 141.752838,142.720306 145.303711,139.597214 
	C143.195770,139.318695 141.697861,139.120789 139.284531,138.921875 
M142.795395,124.053711 
	C143.389420,123.593422 143.983429,123.133133 144.577454,122.672852 
	C143.855301,122.146637 143.153793,121.202026 142.407501,121.165222 
	C138.798737,120.987236 135.175568,120.973045 131.562668,121.077950 
	C130.357132,121.112946 129.166870,121.674042 127.969635,121.994637 
	C128.028275,122.698952 128.086929,123.403267 128.145569,124.107582 
	C132.740753,124.107582 137.335953,124.107582 142.795395,124.053711 
M142.744431,109.812531 
	C143.131027,108.944435 144.036530,107.492981 143.821274,107.301506 
	C142.245804,105.900139 130.047089,106.971855 128.119385,109.888664 
	C132.704376,109.888664 137.289352,109.888664 142.744431,109.812531 
M166.530472,126.988426 
	C169.373657,126.832405 172.216827,126.676384 175.060013,126.520370 
	C175.018463,125.899231 174.976898,125.278091 174.935349,124.656952 
	C169.625793,124.656952 164.316238,124.656952 159.006683,124.656952 
	C158.967102,125.243080 158.927536,125.829216 158.887955,126.415344 
	C161.119965,126.606361 163.351990,126.797379 166.530472,126.988426 
M151.013763,123.501358 
	C151.013763,131.801056 151.013763,140.100754 151.013763,148.400452 
	C151.233429,148.394257 151.453094,148.388062 151.672760,148.381851 
	C151.672760,134.451904 151.672760,120.521965 151.672760,106.592018 
	C151.453110,106.591393 151.233459,106.590767 151.013809,106.590134 
	C151.013809,111.894249 151.013809,117.198357 151.013763,123.501358 
z"/>
<path fill="#383984" opacity="1.000000" stroke="none" 
	d="
M173.793915,67.136108 
	C181.639435,66.853264 182.196411,66.846489 181.641205,76.033073 
	C181.563400,77.320465 179.302109,79.503784 178.014847,79.530914 
	C165.360519,79.797585 152.698334,79.724823 140.038574,79.683609 
	C134.883392,79.666832 136.252594,75.720787 136.059372,72.776382 
	C135.856308,69.682297 136.162201,67.079735 140.339310,67.111755 
	C151.332840,67.196022 162.327469,67.137665 173.793915,67.136108 
M144.840607,75.965614 
	C147.782013,75.965614 150.723419,75.965614 153.664825,75.965614 
	C153.636765,75.492607 153.608704,75.019592 153.580627,74.546585 
	C149.541672,74.546585 145.502716,74.546585 141.463745,74.546585 
	C141.435486,74.858925 141.407227,75.171265 141.378952,75.483604 
	C142.240082,75.642487 143.101196,75.801361 144.840607,75.965614 
z"/>
<path fill="#313280" opacity="1.000000" stroke="none" 
	d="
M147.998413,61.946251 
	C140.520233,61.945099 133.536163,61.775150 126.564781,61.999477 
	C121.542229,62.161095 122.054626,58.915497 121.994064,55.684177 
	C121.930931,52.315739 121.790802,49.419464 126.686867,49.505211 
	C138.812683,49.717583 150.946655,49.700008 163.073318,49.513294 
	C168.021072,49.437111 167.694107,52.517391 167.704132,55.800655 
	C167.714340,59.150566 167.834747,62.245266 162.951035,61.998264 
	C158.144760,61.755188 153.316544,61.945889 147.998413,61.946251 
M131.850784,54.860405 
	C136.112854,54.860405 140.374939,54.860405 144.637009,54.860405 
	C144.619370,54.389545 144.601730,53.918682 144.584091,53.447823 
	C139.175583,53.447823 133.767090,53.447823 128.358582,53.447823 
	C128.337921,53.736744 128.317261,54.025669 128.296600,54.314590 
	C129.179779,54.494087 130.062973,54.673580 131.850784,54.860405 
z"/>
<path fill="#FBAAAD" opacity="1.000000" stroke="none" 
	d="
M148.100906,89.467903 
	C149.318573,87.589867 150.276962,85.916924 151.579926,83.642517 
	C152.944534,86.233177 153.990250,88.218399 155.414291,90.921875 
	C154.279724,91.734802 152.689026,93.742462 151.348083,93.587585 
	C150.045944,93.437195 149.000061,91.067894 148.100906,89.467903 
z"/>
<path fill="#D2D3E4" opacity="1.000000" stroke="none" 
	d="
M154.723053,165.191650 
	C156.505981,165.344193 157.835922,165.496506 159.165878,165.648819 
	C159.138351,166.046341 159.110840,166.443848 159.083313,166.841370 
	C153.969284,166.841370 148.855255,166.841370 143.741226,166.841370 
	C143.738907,166.291397 143.736572,165.741409 143.734253,165.191437 
	C147.246185,165.191437 150.758133,165.191437 154.723053,165.191650 
z"/>
<path fill="#F4F9FE" opacity="1.000000" stroke="none" 
	d="
M174.845245,140.688782 
	C169.220779,140.930725 163.922104,140.930725 158.623444,140.930725 
	C158.555054,140.514359 158.486679,140.097992 158.418304,139.681625 
	C158.963516,139.203033 159.495941,138.326767 160.055969,138.308777 
	C164.522995,138.165161 168.998276,138.098770 173.462341,138.255569 
	C174.056824,138.276443 174.602676,139.682343 174.845245,140.688782 
z"/>
<path fill="#F3F8FE" opacity="1.000000" stroke="none" 
	d="
M165.138107,106.764519 
	C168.817703,106.764191 172.029587,106.764191 175.862167,106.764191 
	C173.202454,110.567368 162.780014,111.009254 157.245865,107.538620 
	C160.527069,107.196655 162.598724,106.980751 165.138107,106.764519 
z"/>
<path fill="#F7FBFE" opacity="1.000000" stroke="none" 
	d="
M139.742233,138.922363 
	C141.697861,139.120789 143.195770,139.318695 145.303711,139.597214 
	C141.752838,142.720306 131.607010,142.839218 128.045822,138.921875 
	C131.792053,138.921875 135.538300,138.921875 139.742233,138.922363 
z"/>
<path fill="#FAFCFE" opacity="1.000000" stroke="none" 
	d="
M142.363266,124.080643 
	C137.335953,124.107582 132.740753,124.107582 128.145569,124.107582 
	C128.086929,123.403267 128.028275,122.698952 127.969635,121.994637 
	C129.166870,121.674042 130.357132,121.112946 131.562668,121.077950 
	C135.175568,120.973045 138.798737,120.987236 142.407501,121.165222 
	C143.153793,121.202026 143.855301,122.146637 144.577454,122.672852 
	C143.983429,123.133133 143.389420,123.593422 142.363266,124.080643 
z"/>
<path fill="#F4F9FE" opacity="1.000000" stroke="none" 
	d="
M142.309387,109.850601 
	C137.289352,109.888664 132.704376,109.888664 128.119385,109.888664 
	C130.047089,106.971855 142.245804,105.900139 143.821274,107.301506 
	C144.036530,107.492981 143.131027,108.944435 142.309387,109.850601 
z"/>
<path fill="#FDFEFF" opacity="1.000000" stroke="none" 
	d="
M166.057236,126.988411 
	C163.351990,126.797379 161.119965,126.606361 158.887955,126.415344 
	C158.927536,125.829216 158.967102,125.243080 159.006683,124.656952 
	C164.316238,124.656952 169.625793,124.656952 174.935349,124.656952 
	C174.976898,125.278091 175.018463,125.899231 175.060013,126.520370 
	C172.216827,126.676384 169.373657,126.832405 166.057236,126.988411 
z"/>
<path fill="#CCE3FB" opacity="1.000000" stroke="none" 
	d="
M151.013794,123.001915 
	C151.013809,117.198357 151.013809,111.894249 151.013809,106.590134 
	C151.233459,106.590767 151.453110,106.591393 151.672760,106.592018 
	C151.672760,120.521965 151.672760,134.451904 151.672760,148.381851 
	C151.453094,148.388062 151.233429,148.394257 151.013763,148.400452 
	C151.013763,140.100754 151.013763,131.801056 151.013794,123.001915 
z"/>
<path fill="#9E9FC4" opacity="1.000000" stroke="none" 
	d="
M144.401459,75.962929 
	C143.101196,75.801361 142.240082,75.642487 141.378952,75.483604 
	C141.407227,75.171265 141.435486,74.858925 141.463745,74.546585 
	C145.502716,74.546585 149.541672,74.546585 153.580627,74.546585 
	C153.608704,75.019592 153.636765,75.492607 153.664825,75.965614 
	C150.723419,75.965614 147.782013,75.965614 144.401459,75.962929 
z"/>
<path fill="#A1A2C5" opacity="1.000000" stroke="none" 
	d="
M131.398468,54.856739 
	C130.062973,54.673580 129.179779,54.494087 128.296600,54.314590 
	C128.317261,54.025669 128.337921,53.736744 128.358582,53.447823 
	C133.767090,53.447823 139.175583,53.447823 144.584091,53.447823 
	C144.601730,53.918682 144.619370,54.389545 144.637009,54.860405 
	C140.374939,54.860405 136.112854,54.860405 131.398468,54.856739 
z"/>
</svg>